<svg width="62" height="62" viewBox="0 0 62 62" fill="none" xmlns="http://www.w3.org/2000/svg">
<path d="M58.9999 29.4445C59.0106 33.5507 58.0512 37.6015 56.1999 41.2667C54.0048 45.6588 50.6303 49.353 46.4542 51.9356C42.2782 54.5181 37.4656 55.887 32.5555 55.8889C28.4493 55.8996 24.3985 54.9402 20.7333 53.0889L3 59L8.9111 41.2667C7.05978 37.6015 6.1004 33.5507 6.11111 29.4445C6.11301 24.5344 7.4819 19.7218 10.0644 15.5458C12.647 11.3697 16.3412 7.99518 20.7333 5.80008C24.3985 3.94876 28.4493 2.98938 32.5555 3.00009H34.1111C40.5957 3.35784 46.7205 6.0949 51.3128 10.6872C55.9051 15.2795 58.6422 21.4043 58.9999 27.8889V29.4445Z" stroke="url(#paint0_linear_112_527)" stroke-width="6" stroke-linecap="round" stroke-linejoin="round"/>
<defs>
<linearGradient id="paint0_linear_112_527" x1="1.5263" y1="59" x2="56.4659" y2="8.80935" gradientUnits="userSpaceOnUse">
<stop stop-color="#FFC83A"/>
<stop offset="0.213542" stop-color="#FF7C32"/>
<stop offset="1" stop-color="#FF008C"/>
</linearGradient>
</defs>
</svg>
