<svg width="69" height="86" viewBox="0 0 69 86" fill="none" xmlns="http://www.w3.org/2000/svg">
<path d="M21.0261 20.6987C21.6443 17.7249 22.2399 14.8631 22.8655 11.8571C24.2033 12.1247 25.4752 12.3676 26.7435 12.6352C36.179 14.6265 45.6139 16.6198 55.0482 18.615C59.0483 19.4576 63.0465 20.3077 67.0522 21.1219C67.8244 21.2794 68.0442 21.5375 67.8431 22.3744C67.2795 24.7314 66.8098 27.1187 66.3401 29.4928C66.2198 30.0963 65.9869 30.2709 65.3781 30.1399C55.5167 28.0448 45.6521 25.9573 35.7844 23.8774C31.1374 22.9007 26.4967 21.9183 21.8622 20.9302C21.6198 20.8809 21.3869 20.7917 21.0261 20.6987Z" fill="url(#paint0_linear_48_66)"/>
<path d="M61.9962 43.1755C60.743 45.9861 59.5387 48.679 58.2704 51.5256L16.4624 31.736C17.7081 28.9804 18.9049 26.3217 20.1844 23.5092L61.9962 43.1755Z" fill="url(#paint1_linear_48_66)"/>
<path d="M27.4724 86L0 48.5993C2.29595 46.8742 4.52613 45.2023 6.75068 43.5228C7.25609 43.1433 7.45713 43.5228 7.70702 43.8625C10.7257 47.9756 13.7469 52.0873 16.7706 56.1979L33.8868 79.4945C34.6891 80.5876 34.6966 80.5876 33.5881 81.4188C31.5852 82.9238 29.5768 84.4249 27.4724 86Z" fill="url(#paint2_linear_48_66)"/>
<path d="M9.13683 41.1393L14.8354 34.2068L50.3173 64.0014L44.6188 70.9357L9.13683 41.1393Z" fill="url(#paint3_linear_48_66)"/>
<path d="M45.9509 0.0189743C53.2427 0.0189743 60.5326 0.0341644 67.8244 0C68.7206 0 69.0231 0.244804 68.9986 1.16901C68.9404 3.4463 68.9554 5.72359 68.9986 8.00088C69.0118 8.78654 68.7431 9.04085 67.969 9.03895C53.2615 9.02377 38.5539 9.02377 23.8463 9.03895C23.1116 9.03895 22.8655 8.79224 22.8787 8.04832C22.9163 5.7084 22.92 3.36849 22.8787 1.02667C22.8636 0.233421 23.1229 0.00379181 23.897 0.00569153C31.2433 0.0284653 38.5971 0.0189743 45.9509 0.0189743Z" fill="url(#paint4_linear_48_66)"/>
<defs>
<linearGradient id="paint0_linear_48_66" x1="34.5" y1="86" x2="34.5369" y2="42.9598" gradientUnits="userSpaceOnUse">
<stop stop-color="#FFD600"/>
<stop offset="1" stop-color="#FF008C"/>
</linearGradient>
<linearGradient id="paint1_linear_48_66" x1="34.5" y1="86" x2="34.5369" y2="42.9598" gradientUnits="userSpaceOnUse">
<stop stop-color="#FFD600"/>
<stop offset="1" stop-color="#FF008C"/>
</linearGradient>
<linearGradient id="paint2_linear_48_66" x1="34.5" y1="86" x2="34.5369" y2="42.9598" gradientUnits="userSpaceOnUse">
<stop stop-color="#FFD600"/>
<stop offset="1" stop-color="#FF008C"/>
</linearGradient>
<linearGradient id="paint3_linear_48_66" x1="34.5" y1="86" x2="34.5369" y2="42.9598" gradientUnits="userSpaceOnUse">
<stop stop-color="#FFD600"/>
<stop offset="1" stop-color="#FF008C"/>
</linearGradient>
<linearGradient id="paint4_linear_48_66" x1="34.5" y1="86" x2="34.5369" y2="42.9598" gradientUnits="userSpaceOnUse">
<stop stop-color="#FFD600"/>
<stop offset="1" stop-color="#FF008C"/>
</linearGradient>
</defs>
</svg>
