<svg width="343" height="66" viewBox="0 0 343 66" fill="none" xmlns="http://www.w3.org/2000/svg">
<path d="M14.448 51.72C11.792 51.72 9.536 51.128 7.68 49.944C5.824 48.76 4.4 47.136 3.408 45.072C2.432 43.008 1.936 40.664 1.92 38.04C1.936 35.368 2.448 33.008 3.456 30.96C4.464 28.896 5.904 27.28 7.776 26.112C9.648 24.944 11.896 24.36 14.52 24.36C17.352 24.36 19.768 25.064 21.768 26.472C23.784 27.88 25.112 29.808 25.752 32.256L20.76 33.696C20.264 32.24 19.448 31.112 18.312 30.312C17.192 29.496 15.904 29.088 14.448 29.088C12.8 29.088 11.448 29.48 10.392 30.264C9.336 31.032 8.552 32.088 8.04 33.432C7.528 34.776 7.264 36.312 7.248 38.04C7.264 40.712 7.872 42.872 9.072 44.52C10.288 46.168 12.08 46.992 14.448 46.992C16.064 46.992 17.368 46.624 18.36 45.888C19.368 45.136 20.136 44.064 20.664 42.672L25.752 43.872C24.904 46.4 23.504 48.344 21.552 49.704C19.6 51.048 17.232 51.72 14.448 51.72ZM48.8333 51V38.256C48.8333 37.248 48.7453 36.216 48.5693 35.16C48.4093 34.088 48.0893 33.096 47.6093 32.184C47.1453 31.272 46.4813 30.536 45.6173 29.976C44.7693 29.416 43.6573 29.136 42.2812 29.136C41.3853 29.136 40.5373 29.288 39.7373 29.592C38.9373 29.88 38.2333 30.352 37.6253 31.008C37.0333 31.664 36.5613 32.528 36.2093 33.6C35.8733 34.672 35.7053 35.976 35.7053 37.512L32.5853 36.336C32.5853 33.984 33.0253 31.912 33.9053 30.12C34.7853 28.312 36.0493 26.904 37.6973 25.896C39.3453 24.888 41.3373 24.384 43.6733 24.384C45.4653 24.384 46.9693 24.672 48.1853 25.248C49.4013 25.824 50.3853 26.584 51.1373 27.528C51.9053 28.456 52.4893 29.472 52.8893 30.576C53.2893 31.68 53.5613 32.76 53.7053 33.816C53.8493 34.872 53.9213 35.8 53.9213 36.6V51H48.8333ZM30.6173 51V16.44H35.1053V35.088H35.7053V51H30.6173ZM69.9405 51.696C68.1485 51.696 66.6445 51.408 65.4285 50.832C64.2125 50.256 63.2205 49.504 62.4525 48.576C61.7005 47.632 61.1245 46.608 60.7245 45.504C60.3245 44.4 60.0525 43.32 59.9085 42.264C59.7645 41.208 59.6925 40.28 59.6925 39.48V25.08H64.7805V37.824C64.7805 38.832 64.8605 39.872 65.0205 40.944C65.1965 42 65.5165 42.984 65.9805 43.896C66.4605 44.808 67.1245 45.544 67.9725 46.104C68.8365 46.664 69.9565 46.944 71.3325 46.944C72.2285 46.944 73.0765 46.8 73.8765 46.512C74.6765 46.208 75.3725 45.728 75.9645 45.072C76.5725 44.416 77.0445 43.552 77.3805 42.48C77.7325 41.408 77.9085 40.104 77.9085 38.568L81.0285 39.744C81.0285 42.096 80.5885 44.176 79.7085 45.984C78.8285 47.776 77.5645 49.176 75.9165 50.184C74.2685 51.192 72.2765 51.696 69.9405 51.696ZM78.5085 51V43.512H77.9085V25.08H82.9725V51H78.5085ZM90.1838 51V15.72H95.1998V51H90.1838ZM109.727 51.72C107.807 51.72 106.199 51.368 104.903 50.664C103.607 49.944 102.623 49 101.951 47.832C101.295 46.648 100.967 45.352 100.967 43.944C100.967 42.632 101.199 41.48 101.663 40.488C102.127 39.496 102.815 38.656 103.727 37.968C104.639 37.264 105.759 36.696 107.087 36.264C108.239 35.928 109.543 35.632 110.999 35.376C112.455 35.12 113.983 34.88 115.583 34.656C117.199 34.432 118.799 34.208 120.383 33.984L118.559 34.992C118.591 32.96 118.159 31.456 117.263 30.48C116.383 29.488 114.863 28.992 112.703 28.992C111.343 28.992 110.095 29.312 108.959 29.952C107.823 30.576 107.031 31.616 106.583 33.072L101.903 31.632C102.543 29.408 103.759 27.64 105.551 26.328C107.359 25.016 109.759 24.36 112.751 24.36C115.071 24.36 117.087 24.76 118.799 25.56C120.527 26.344 121.791 27.592 122.591 29.304C123.007 30.152 123.263 31.048 123.359 31.992C123.455 32.936 123.503 33.952 123.503 35.04V51H119.063V45.072L119.927 45.84C118.855 47.824 117.487 49.304 115.823 50.28C114.175 51.24 112.143 51.72 109.727 51.72ZM110.615 47.616C112.039 47.616 113.263 47.368 114.287 46.872C115.311 46.36 116.135 45.712 116.759 44.928C117.383 44.144 117.791 43.328 117.983 42.48C118.255 41.712 118.407 40.848 118.439 39.888C118.487 38.928 118.511 38.16 118.511 37.584L120.143 38.184C118.559 38.424 117.119 38.64 115.823 38.832C114.527 39.024 113.351 39.216 112.295 39.408C111.255 39.584 110.327 39.8 109.511 40.056C108.823 40.296 108.207 40.584 107.663 40.92C107.135 41.256 106.711 41.664 106.391 42.144C106.087 42.624 105.935 43.208 105.935 43.896C105.935 44.568 106.103 45.192 106.439 45.768C106.775 46.328 107.287 46.776 107.975 47.112C108.663 47.448 109.543 47.616 110.615 47.616Z" fill="#413A43"/>
<path d="M151.024 51.72C148.416 51.72 146.128 51.136 144.16 49.968C142.192 48.8 140.656 47.192 139.552 45.144C138.464 43.08 137.92 40.712 137.92 38.04C137.92 35.336 138.48 32.96 139.6 30.912C140.72 28.848 142.264 27.24 144.232 26.088C146.2 24.936 148.464 24.36 151.024 24.36C153.632 24.36 155.92 24.944 157.888 26.112C159.872 27.28 161.416 28.896 162.52 30.96C163.624 33.008 164.176 35.368 164.176 38.04C164.176 40.728 163.616 43.104 162.496 45.168C161.392 47.216 159.848 48.824 157.864 49.992C155.896 51.144 153.616 51.72 151.024 51.72ZM151.024 45.624C153.12 45.624 154.68 44.92 155.704 43.512C156.744 42.088 157.264 40.264 157.264 38.04C157.264 35.736 156.736 33.896 155.68 32.52C154.64 31.144 153.088 30.456 151.024 30.456C149.6 30.456 148.432 30.776 147.52 31.416C146.608 32.056 145.928 32.944 145.48 34.08C145.048 35.216 144.832 36.536 144.832 38.04C144.832 40.36 145.352 42.208 146.392 43.584C147.448 44.944 148.992 45.624 151.024 45.624ZM175.524 51L166.116 25.08H172.644L178.788 43.032L184.932 25.08H191.46L182.052 51H175.524ZM206.908 51.72C204.252 51.72 201.908 51.152 199.876 50.016C197.86 48.864 196.276 47.288 195.124 45.288C193.988 43.272 193.42 40.968 193.42 38.376C193.42 35.544 193.98 33.08 195.1 30.984C196.22 28.888 197.764 27.264 199.732 26.112C201.7 24.944 203.964 24.36 206.524 24.36C209.244 24.36 211.556 25 213.46 26.28C215.364 27.56 216.772 29.36 217.684 31.68C218.596 34 218.916 36.728 218.644 39.864H212.188V37.464C212.188 34.824 211.764 32.928 210.916 31.776C210.084 30.608 208.716 30.024 206.812 30.024C204.588 30.024 202.948 30.704 201.892 32.064C200.852 33.408 200.332 35.4 200.332 38.04C200.332 40.456 200.852 42.328 201.892 43.656C202.948 44.968 204.492 45.624 206.524 45.624C207.804 45.624 208.9 45.344 209.812 44.784C210.724 44.224 211.42 43.416 211.9 42.36L218.428 44.232C217.452 46.6 215.908 48.44 213.796 49.752C211.7 51.064 209.404 51.72 206.908 51.72ZM198.316 39.864V35.016H215.5V39.864H198.316ZM224.063 51V25.08H229.823V31.416L229.199 30.6C229.535 29.704 229.983 28.888 230.543 28.152C231.103 27.416 231.791 26.808 232.607 26.328C233.231 25.944 233.911 25.648 234.647 25.44C235.383 25.216 236.143 25.08 236.927 25.032C237.711 24.968 238.495 24.984 239.279 25.08V31.176C238.559 30.952 237.719 30.88 236.759 30.96C235.815 31.024 234.959 31.24 234.191 31.608C233.423 31.96 232.775 32.432 232.247 33.024C231.719 33.6 231.319 34.288 231.047 35.088C230.775 35.872 230.639 36.76 230.639 37.752V51H224.063ZM258.244 30.12V25.08H264.484V30.12H258.244ZM246.004 51V25.176C246.004 24.52 246.02 23.776 246.052 22.944C246.084 22.112 246.212 21.272 246.436 20.424C246.676 19.576 247.108 18.808 247.732 18.12C248.532 17.224 249.396 16.616 250.324 16.296C251.268 15.96 252.18 15.784 253.06 15.768C253.94 15.736 254.692 15.72 255.316 15.72H258.532V21H255.556C254.532 21 253.772 21.264 253.276 21.792C252.78 22.304 252.532 22.92 252.532 23.64V51H246.004ZM241.924 30.12V25.08H258.532V30.12H241.924ZM264.244 51V15.72H270.772V51H264.244ZM289.633 51.72C287.025 51.72 284.737 51.136 282.769 49.968C280.801 48.8 279.265 47.192 278.161 45.144C277.073 43.08 276.529 40.712 276.529 38.04C276.529 35.336 277.089 32.96 278.209 30.912C279.329 28.848 280.873 27.24 282.841 26.088C284.809 24.936 287.073 24.36 289.633 24.36C292.241 24.36 294.529 24.944 296.497 26.112C298.481 27.28 300.025 28.896 301.129 30.96C302.233 33.008 302.785 35.368 302.785 38.04C302.785 40.728 302.225 43.104 301.105 45.168C300.001 47.216 298.457 48.824 296.473 49.992C294.505 51.144 292.225 51.72 289.633 51.72ZM289.633 45.624C291.729 45.624 293.289 44.92 294.313 43.512C295.353 42.088 295.873 40.264 295.873 38.04C295.873 35.736 295.345 33.896 294.289 32.52C293.249 31.144 291.697 30.456 289.633 30.456C288.209 30.456 287.041 30.776 286.129 31.416C285.217 32.056 284.537 32.944 284.089 34.08C283.657 35.216 283.441 36.536 283.441 38.04C283.441 40.36 283.961 42.208 285.001 43.584C286.057 44.944 287.601 45.624 289.633 45.624ZM312.646 51L304.726 25.032L311.11 25.08L315.814 40.536L320.59 25.08H326.014L330.79 40.536L335.494 25.08H341.878L333.958 51H328.966L323.302 34.104L317.638 51H312.646Z" fill="url(#paint0_linear_48_165)"/>
<defs>
<linearGradient id="paint0_linear_48_165" x1="139.5" y1="53.2041" x2="225.915" y2="56.0921" gradientUnits="userSpaceOnUse">
<stop stop-color="#FFC83A"/>
<stop offset="0.213542" stop-color="#FF7C32"/>
<stop offset="1" stop-color="#FF008C"/>
</linearGradient>
</defs>
</svg>
