<svg width="297" height="98" viewBox="0 0 297 98" fill="none" xmlns="http://www.w3.org/2000/svg">
<path d="M21.0261 32.6987C21.6443 29.7249 22.2399 26.8631 22.8655 23.8571C24.2033 24.1247 25.4752 24.3676 26.7435 24.6352C36.179 26.6265 45.6139 28.6198 55.0482 30.615C59.0483 31.4576 63.0465 32.3077 67.0522 33.1219C67.8244 33.2794 68.0442 33.5375 67.8431 34.3744C67.2795 36.7314 66.8098 39.1187 66.3401 41.4928C66.2198 42.0963 65.9869 42.2709 65.3781 42.1399C55.5167 40.0448 45.6521 37.9573 35.7844 35.8774C31.1374 34.9007 26.4967 33.9183 21.8622 32.9302C21.6198 32.8809 21.3869 32.7917 21.0261 32.6987Z" fill="url(#paint0_linear_48_61)"/>
<path d="M61.9962 55.1755C60.743 57.9861 59.5387 60.679 58.2704 63.5256L16.4624 43.736C17.7081 40.9804 18.9049 38.3217 20.1844 35.5092L61.9962 55.1755Z" fill="url(#paint1_linear_48_61)"/>
<path d="M27.4724 98L0 60.5993C2.29595 58.8742 4.52613 57.2023 6.75068 55.5228C7.25609 55.1433 7.45713 55.5228 7.70702 55.8625C10.7257 59.9756 13.7469 64.0873 16.7706 68.1979L33.8868 91.4945C34.6891 92.5876 34.6966 92.5876 33.5881 93.4188C31.5852 94.9238 29.5768 96.4249 27.4724 98Z" fill="url(#paint2_linear_48_61)"/>
<path d="M9.13683 53.1393L14.8354 46.2068L50.3173 76.0014L44.6188 82.9357L9.13683 53.1393Z" fill="url(#paint3_linear_48_61)"/>
<path d="M45.9509 12.019C53.2427 12.019 60.5326 12.0342 67.8244 12C68.7206 12 69.0231 12.2448 68.9986 13.169C68.9404 15.4463 68.9554 17.7236 68.9986 20.0009C69.0118 20.7865 68.7431 21.0408 67.969 21.0389C53.2615 21.0238 38.5539 21.0238 23.8463 21.0389C23.1116 21.0389 22.8655 20.7922 22.8787 20.0483C22.9163 17.7084 22.92 15.3685 22.8787 13.0267C22.8636 12.2334 23.1229 12.0038 23.897 12.0057C31.2433 12.0285 38.5971 12.019 45.9509 12.019Z" fill="url(#paint4_linear_48_61)"/>
<path d="M104.448 43.72C101.792 43.72 99.536 43.128 97.68 41.944C95.824 40.76 94.4 39.136 93.408 37.072C92.432 35.008 91.936 32.664 91.92 30.04C91.936 27.368 92.448 25.008 93.456 22.96C94.464 20.896 95.904 19.28 97.776 18.112C99.648 16.944 101.896 16.36 104.52 16.36C107.352 16.36 109.768 17.064 111.768 18.472C113.784 19.88 115.112 21.808 115.752 24.256L110.76 25.696C110.264 24.24 109.448 23.112 108.312 22.312C107.192 21.496 105.904 21.088 104.448 21.088C102.8 21.088 101.448 21.48 100.392 22.264C99.336 23.032 98.552 24.088 98.04 25.432C97.528 26.776 97.264 28.312 97.248 30.04C97.264 32.712 97.872 34.872 99.072 36.52C100.288 38.168 102.08 38.992 104.448 38.992C106.064 38.992 107.368 38.624 108.36 37.888C109.368 37.136 110.136 36.064 110.664 34.672L115.752 35.872C114.904 38.4 113.504 40.344 111.552 41.704C109.6 43.048 107.232 43.72 104.448 43.72ZM138.833 43V30.256C138.833 29.248 138.745 28.216 138.569 27.16C138.409 26.088 138.089 25.096 137.609 24.184C137.145 23.272 136.481 22.536 135.617 21.976C134.769 21.416 133.657 21.136 132.281 21.136C131.385 21.136 130.537 21.288 129.737 21.592C128.937 21.88 128.233 22.352 127.625 23.008C127.033 23.664 126.561 24.528 126.209 25.6C125.873 26.672 125.705 27.976 125.705 29.512L122.585 28.336C122.585 25.984 123.025 23.912 123.905 22.12C124.785 20.312 126.049 18.904 127.697 17.896C129.345 16.888 131.337 16.384 133.673 16.384C135.465 16.384 136.969 16.672 138.185 17.248C139.401 17.824 140.385 18.584 141.137 19.528C141.905 20.456 142.489 21.472 142.889 22.576C143.289 23.68 143.561 24.76 143.705 25.816C143.849 26.872 143.921 27.8 143.921 28.6V43H138.833ZM120.617 43V8.44H125.105V27.088H125.705V43H120.617ZM159.941 43.696C158.149 43.696 156.645 43.408 155.429 42.832C154.213 42.256 153.221 41.504 152.453 40.576C151.701 39.632 151.125 38.608 150.725 37.504C150.325 36.4 150.053 35.32 149.909 34.264C149.765 33.208 149.693 32.28 149.693 31.48V17.08H154.781V29.824C154.781 30.832 154.861 31.872 155.021 32.944C155.197 34 155.517 34.984 155.981 35.896C156.461 36.808 157.125 37.544 157.973 38.104C158.837 38.664 159.957 38.944 161.333 38.944C162.229 38.944 163.077 38.8 163.877 38.512C164.677 38.208 165.373 37.728 165.965 37.072C166.573 36.416 167.045 35.552 167.381 34.48C167.733 33.408 167.909 32.104 167.909 30.568L171.029 31.744C171.029 34.096 170.589 36.176 169.709 37.984C168.829 39.776 167.565 41.176 165.917 42.184C164.269 43.192 162.277 43.696 159.941 43.696ZM168.509 43V35.512H167.909V17.08H172.973V43H168.509ZM180.184 43V7.72H185.2V43H180.184ZM199.727 43.72C197.807 43.72 196.199 43.368 194.903 42.664C193.607 41.944 192.623 41 191.951 39.832C191.295 38.648 190.967 37.352 190.967 35.944C190.967 34.632 191.199 33.48 191.663 32.488C192.127 31.496 192.815 30.656 193.727 29.968C194.639 29.264 195.759 28.696 197.087 28.264C198.239 27.928 199.543 27.632 200.999 27.376C202.455 27.12 203.983 26.88 205.583 26.656C207.199 26.432 208.799 26.208 210.383 25.984L208.559 26.992C208.591 24.96 208.159 23.456 207.263 22.48C206.383 21.488 204.863 20.992 202.703 20.992C201.343 20.992 200.095 21.312 198.959 21.952C197.823 22.576 197.031 23.616 196.583 25.072L191.903 23.632C192.543 21.408 193.759 19.64 195.551 18.328C197.359 17.016 199.759 16.36 202.751 16.36C205.071 16.36 207.087 16.76 208.799 17.56C210.527 18.344 211.791 19.592 212.591 21.304C213.007 22.152 213.263 23.048 213.359 23.992C213.455 24.936 213.503 25.952 213.503 27.04V43H209.063V37.072L209.927 37.84C208.855 39.824 207.487 41.304 205.823 42.28C204.175 43.24 202.143 43.72 199.727 43.72ZM200.615 39.616C202.039 39.616 203.263 39.368 204.287 38.872C205.311 38.36 206.135 37.712 206.759 36.928C207.383 36.144 207.791 35.328 207.983 34.48C208.255 33.712 208.407 32.848 208.439 31.888C208.487 30.928 208.511 30.16 208.511 29.584L210.143 30.184C208.559 30.424 207.119 30.64 205.823 30.832C204.527 31.024 203.351 31.216 202.295 31.408C201.255 31.584 200.327 31.8 199.511 32.056C198.823 32.296 198.207 32.584 197.663 32.92C197.135 33.256 196.711 33.664 196.391 34.144C196.087 34.624 195.935 35.208 195.935 35.896C195.935 36.568 196.103 37.192 196.439 37.768C196.775 38.328 197.287 38.776 197.975 39.112C198.663 39.448 199.543 39.616 200.615 39.616Z" fill="#413A43"/>
<path d="M105.024 92.72C102.416 92.72 100.128 92.136 98.16 90.968C96.192 89.8 94.656 88.192 93.552 86.144C92.464 84.08 91.92 81.712 91.92 79.04C91.92 76.336 92.48 73.96 93.6 71.912C94.72 69.848 96.264 68.24 98.232 67.088C100.2 65.936 102.464 65.36 105.024 65.36C107.632 65.36 109.92 65.944 111.888 67.112C113.872 68.28 115.416 69.896 116.52 71.96C117.624 74.008 118.176 76.368 118.176 79.04C118.176 81.728 117.616 84.104 116.496 86.168C115.392 88.216 113.848 89.824 111.864 90.992C109.896 92.144 107.616 92.72 105.024 92.72ZM105.024 86.624C107.12 86.624 108.68 85.92 109.704 84.512C110.744 83.088 111.264 81.264 111.264 79.04C111.264 76.736 110.736 74.896 109.68 73.52C108.64 72.144 107.088 71.456 105.024 71.456C103.6 71.456 102.432 71.776 101.52 72.416C100.608 73.056 99.928 73.944 99.48 75.08C99.048 76.216 98.832 77.536 98.832 79.04C98.832 81.36 99.352 83.208 100.392 84.584C101.448 85.944 102.992 86.624 105.024 86.624ZM129.524 92L120.116 66.08H126.644L132.788 84.032L138.932 66.08H145.46L136.052 92H129.524ZM160.908 92.72C158.252 92.72 155.908 92.152 153.876 91.016C151.86 89.864 150.276 88.288 149.124 86.288C147.988 84.272 147.42 81.968 147.42 79.376C147.42 76.544 147.98 74.08 149.1 71.984C150.22 69.888 151.764 68.264 153.732 67.112C155.7 65.944 157.964 65.36 160.524 65.36C163.244 65.36 165.556 66 167.46 67.28C169.364 68.56 170.772 70.36 171.684 72.68C172.596 75 172.916 77.728 172.644 80.864H166.188V78.464C166.188 75.824 165.764 73.928 164.916 72.776C164.084 71.608 162.716 71.024 160.812 71.024C158.588 71.024 156.948 71.704 155.892 73.064C154.852 74.408 154.332 76.4 154.332 79.04C154.332 81.456 154.852 83.328 155.892 84.656C156.948 85.968 158.492 86.624 160.524 86.624C161.804 86.624 162.9 86.344 163.812 85.784C164.724 85.224 165.42 84.416 165.9 83.36L172.428 85.232C171.452 87.6 169.908 89.44 167.796 90.752C165.7 92.064 163.404 92.72 160.908 92.72ZM152.316 80.864V76.016H169.5V80.864H152.316ZM178.063 92V66.08H183.823V72.416L183.199 71.6C183.535 70.704 183.983 69.888 184.543 69.152C185.103 68.416 185.791 67.808 186.607 67.328C187.231 66.944 187.911 66.648 188.647 66.44C189.383 66.216 190.143 66.08 190.927 66.032C191.711 65.968 192.495 65.984 193.279 66.08V72.176C192.559 71.952 191.719 71.88 190.759 71.96C189.815 72.024 188.959 72.24 188.191 72.608C187.423 72.96 186.775 73.432 186.247 74.024C185.719 74.6 185.319 75.288 185.047 76.088C184.775 76.872 184.639 77.76 184.639 78.752V92H178.063ZM212.244 71.12V66.08H218.484V71.12H212.244ZM200.004 92V66.176C200.004 65.52 200.02 64.776 200.052 63.944C200.084 63.112 200.212 62.272 200.436 61.424C200.676 60.576 201.108 59.808 201.732 59.12C202.532 58.224 203.396 57.616 204.324 57.296C205.268 56.96 206.18 56.784 207.06 56.768C207.94 56.736 208.692 56.72 209.316 56.72H212.532V62H209.556C208.532 62 207.772 62.264 207.276 62.792C206.78 63.304 206.532 63.92 206.532 64.64V92H200.004ZM195.924 71.12V66.08H212.532V71.12H195.924ZM218.244 92V56.72H224.772V92H218.244ZM243.633 92.72C241.025 92.72 238.737 92.136 236.769 90.968C234.801 89.8 233.265 88.192 232.161 86.144C231.073 84.08 230.529 81.712 230.529 79.04C230.529 76.336 231.089 73.96 232.209 71.912C233.329 69.848 234.873 68.24 236.841 67.088C238.809 65.936 241.073 65.36 243.633 65.36C246.241 65.36 248.529 65.944 250.497 67.112C252.481 68.28 254.025 69.896 255.129 71.96C256.233 74.008 256.785 76.368 256.785 79.04C256.785 81.728 256.225 84.104 255.105 86.168C254.001 88.216 252.457 89.824 250.473 90.992C248.505 92.144 246.225 92.72 243.633 92.72ZM243.633 86.624C245.729 86.624 247.289 85.92 248.313 84.512C249.353 83.088 249.873 81.264 249.873 79.04C249.873 76.736 249.345 74.896 248.289 73.52C247.249 72.144 245.697 71.456 243.633 71.456C242.209 71.456 241.041 71.776 240.129 72.416C239.217 73.056 238.537 73.944 238.089 75.08C237.657 76.216 237.441 77.536 237.441 79.04C237.441 81.36 237.961 83.208 239.001 84.584C240.057 85.944 241.601 86.624 243.633 86.624ZM266.646 92L258.726 66.032L265.11 66.08L269.814 81.536L274.59 66.08H280.014L284.79 81.536L289.494 66.08H295.878L287.958 92H282.966L277.302 75.104L271.638 92H266.646Z" fill="url(#paint5_linear_48_61)"/>
<defs>
<linearGradient id="paint0_linear_48_61" x1="34.5" y1="98" x2="34.5369" y2="54.9598" gradientUnits="userSpaceOnUse">
<stop stop-color="#FFD600"/>
<stop offset="1" stop-color="#FF008C"/>
</linearGradient>
<linearGradient id="paint1_linear_48_61" x1="34.5" y1="98" x2="34.5369" y2="54.9598" gradientUnits="userSpaceOnUse">
<stop stop-color="#FFD600"/>
<stop offset="1" stop-color="#FF008C"/>
</linearGradient>
<linearGradient id="paint2_linear_48_61" x1="34.5" y1="98" x2="34.5369" y2="54.9598" gradientUnits="userSpaceOnUse">
<stop stop-color="#FFD600"/>
<stop offset="1" stop-color="#FF008C"/>
</linearGradient>
<linearGradient id="paint3_linear_48_61" x1="34.5" y1="98" x2="34.5369" y2="54.9598" gradientUnits="userSpaceOnUse">
<stop stop-color="#FFD600"/>
<stop offset="1" stop-color="#FF008C"/>
</linearGradient>
<linearGradient id="paint4_linear_48_61" x1="34.5" y1="98" x2="34.5369" y2="54.9598" gradientUnits="userSpaceOnUse">
<stop stop-color="#FFD600"/>
<stop offset="1" stop-color="#FF008C"/>
</linearGradient>
<linearGradient id="paint5_linear_48_61" x1="93.5" y1="79" x2="179.967" y2="80.9462" gradientUnits="userSpaceOnUse">
<stop stop-color="#FFC83A"/>
<stop offset="0.213542" stop-color="#FF7C32"/>
<stop offset="1" stop-color="#FF008C"/>
</linearGradient>
</defs>
</svg>
