<svg width="56" height="71" viewBox="0 0 56 71" fill="none" xmlns="http://www.w3.org/2000/svg">
<path d="M15.344 67.1944H40.0315M30.1874 13.1288C33.2048 13.6402 35.989 15.0757 38.1558 17.2369C40.3226 19.3982 41.7651 22.1787 42.2843 25.1948M12.4741 47.1358C9.53502 44.8506 7.15461 41.9263 5.51321 38.5847C3.8718 35.2431 3.01245 31.5717 3.00026 27.8487C2.93855 14.4558 13.7085 3.31553 27.1014 3.00694C32.2848 2.88406 37.3752 4.39624 41.6509 7.329C45.9265 10.2618 49.1703 14.4662 50.9221 19.3461C52.674 24.226 52.8449 29.5335 51.4108 34.5161C49.9767 39.4986 47.0103 43.9031 42.9323 47.105C42.0315 47.8013 41.3018 48.6944 40.799 49.716C40.2962 50.7375 40.0337 51.8605 40.0315 52.9991V54.8507C40.0315 55.5054 39.7714 56.1334 39.3084 56.5964C38.8455 57.0593 38.2175 57.3194 37.5628 57.3194H17.8128C17.158 57.3194 16.5301 57.0593 16.0671 56.5964C15.6041 56.1334 15.344 55.5054 15.344 54.8507V52.9991C15.3363 51.8691 15.0743 50.7553 14.5775 49.7403C14.0807 48.7253 13.3618 47.8352 12.4741 47.1358Z" stroke="url(#paint0_linear_112_535)" stroke-width="6" stroke-linecap="round" stroke-linejoin="round"/>
<defs>
<linearGradient id="paint0_linear_112_535" x1="20.6878" y1="7.6007" x2="42.1472" y2="67.4359" gradientUnits="userSpaceOnUse">
<stop stop-color="#FFC83A"/>
<stop offset="0.213542" stop-color="#FF7C32"/>
<stop offset="1" stop-color="#FF008C"/>
</linearGradient>
</defs>
</svg>
